<?xml version="1.0" encoding="UTF-8" standalone="no"?>
<svg
   xmlns:dc="http://purl.org/dc/elements/1.1/"
   xmlns:cc="http://creativecommons.org/ns#"
   xmlns:rdf="http://www.w3.org/1999/02/22-rdf-syntax-ns#"
   xmlns:svg="http://www.w3.org/2000/svg"
   xmlns="http://www.w3.org/2000/svg"
   xmlns:sodipodi="http://sodipodi.sourceforge.net/DTD/sodipodi-0.dtd"
   xmlns:inkscape="http://www.inkscape.org/namespaces/inkscape"
   version="1.1"
   x="0px"
   y="0px"
   viewBox="0 0 201.413 171.00799"
   enable-background="new 0 0 283.46 283.46"
   xml:space="preserve"
   id="svg30"
   sodipodi:docname="logo.svg"
   inkscape:version="1.0.1 (3bc2e813f5, 2020-09-07)"
   width="201.41299"
   height="171.008"><metadata
   id="metadata36"><rdf:RDF><cc:Work
       rdf:about=""><dc:format>image/svg+xml</dc:format><dc:type
         rdf:resource="http://purl.org/dc/dcmitype/StillImage" /><dc:title></dc:title></cc:Work></rdf:RDF></metadata><defs
   id="defs34" /><sodipodi:namedview
   pagecolor="#ffffff"
   bordercolor="#666666"
   borderopacity="1"
   objecttolerance="10"
   gridtolerance="10"
   guidetolerance="10"
   inkscape:pageopacity="0"
   inkscape:pageshadow="2"
   inkscape:window-width="1920"
   inkscape:window-height="1017"
   id="namedview32"
   showgrid="false"
   inkscape:zoom="2.3989275"
   inkscape:cx="61.485809"
   inkscape:cy="77.117793"
   inkscape:window-x="1912"
   inkscape:window-y="-8"
   inkscape:window-maximized="1"
   inkscape:current-layer="svg30"
   inkscape:document-rotation="0"
   fit-margin-top="0"
   fit-margin-left="0"
   fit-margin-right="0"
   fit-margin-bottom="0" />
    <path
   d="m 198.617,91.807 -18.5,16.75 c -3.481,3.153 -8.858,2.884 -12.012,-0.596 -3.152,-3.481 -2.886,-8.859 0.596,-12.011 l 2.145,-1.942 h -19.092 c -5.926,0 -10.746,4.821 -10.746,10.746 0,15.304 -12.45,27.754 -27.754,27.754 h -17.75 -30.75 c -5.925,0 -10.746,4.821 -10.746,10.746 0,15.304 -12.45,27.754 -27.754,27.754 H 8.5040001 C 3.807,171.008 0,167.201 0,162.504 0,157.807 3.807,154 8.5040001,154 H 26.254 C 32.179,154 37,149.179 37,143.254 c 0,-7.47 2.972,-14.256 7.789,-19.25 C 39.972,119.01 37,112.224 37,104.754 37,98.829 32.179,94.008 26.254,94.008 H 8.5040001 C 3.807,94.008 0,90.201 0,85.504 0,80.807 3.807,77 8.5040001,77 H 26.254 c 15.304,0 27.754,12.45 27.754,27.754 0,5.925 4.821,10.746 10.746,10.746 h 30.75 17.75 c 5.926,0 10.746,-4.821 10.746,-10.746 0,-7.47 2.972,-14.256 7.789,-19.25 C 126.972,80.51 124,73.724 124,66.254 124,60.328 119.18,55.508 113.254,55.508 H 95.504 64.754 C 49.45,55.508 37,43.058 37,27.754 37,21.828 32.179,17.008 26.254,17.008 H 8.5040001 C 3.807,17.008 0,13.2 0,8.5040003 0,3.808 3.807,0 8.5040001,0 H 26.254 c 15.304,0 27.754,12.45 27.754,27.754 0,5.926 4.821,10.746 10.746,10.746 h 30.75 17.75 c 15.304,0 27.754,12.45 27.754,27.754 0,5.925 4.82,10.746 10.746,10.746 h 19.092 l -2.145,-1.942 c -3.481,-3.152 -3.748,-8.529 -0.596,-12.012 1.679,-1.854 3.988,-2.796 6.307,-2.796 2.035,0 4.077,0.727 5.705,2.2 l 18.5,16.75 c 1.78,1.612 2.796,3.902 2.796,6.304 0,2.402 -1.016,4.691 -2.796,6.303 z"
   id="path24"
   clip-path="none"
   style="fill:#ffffff;fill-opacity:1" />


</svg>
